<svg xmlns="http://www.w3.org/2000/svg" width="91.024" height="62.226" viewBox="0 0 91.024 62.226">
  <g id="Group_131" data-name="Group 131" transform="translate(2.5 2.5)">
    <g id="Group_128" data-name="Group 128" transform="translate(32.573 0)">
      <path id="Path_65" data-name="Path 65" d="M78.439,301.927" transform="translate(-60.426 -292.92)" fill="none" stroke="#fff" stroke-linecap="round" stroke-miterlimit="10" stroke-width="5"/>
      <path id="Path_66" data-name="Path 66" d="M96.452,304.639a9.007,9.007,0,1,0-9.007,9.007" transform="translate(-78.439 -295.632)" fill="none" stroke="#fff" stroke-linecap="round" stroke-miterlimit="10" stroke-width="5"/>
      <line id="Line_4" data-name="Line 4" x1="44.444" transform="translate(9.007 18.014)" fill="#fff" stroke="#fff" stroke-linecap="round" stroke-miterlimit="10" stroke-width="5"/>
    </g>
    <g id="Group_129" data-name="Group 129" transform="translate(32.574 39.214)">
      <path id="Path_67" data-name="Path 67" d="M78.438,329.335" transform="translate(-60.425 -320.328)" fill="none" stroke="#fff" stroke-linecap="round" stroke-miterlimit="10" stroke-width="5"/>
      <path id="Path_68" data-name="Path 68" d="M96.451,332.047a9.007,9.007,0,1,1-9.007-9.007" transform="translate(-78.438 -323.039)" fill="none" stroke="#fff" stroke-linecap="round" stroke-miterlimit="10" stroke-width="5"/>
      <line id="Line_5" data-name="Line 5" x1="44.444" transform="translate(9.006)" fill="#fff" stroke="#fff" stroke-linecap="round" stroke-miterlimit="10" stroke-width="5"/>
    </g>
    <g id="Group_130" data-name="Group 130" transform="translate(0 28.614)">
      <path id="Path_69" data-name="Path 69" d="M101.205,321.926" transform="translate(-83.192 -312.919)" fill="none" stroke="#fff" stroke-linecap="round" stroke-miterlimit="10" stroke-width="5"/>
      <path id="Path_70" data-name="Path 70" d="M119.218,324.638a9.007,9.007,0,1,1-9.007-9.007" transform="translate(-101.205 -315.631)" fill="none" stroke="#fff" stroke-linecap="round" stroke-miterlimit="10" stroke-width="5"/>
      <line id="Line_6" data-name="Line 6" x1="77.018" transform="translate(9.006)" fill="#fff" stroke="#fff" stroke-linecap="round" stroke-miterlimit="10" stroke-width="5"/>
    </g>
  </g>
</svg>
