<svg xmlns="http://www.w3.org/2000/svg" width="68.088" height="80.151" viewBox="0 0 68.088 80.151">
  <g id="Group_127" data-name="Group 127" transform="translate(-462.19 -165)">
    <path id="Path_61" data-name="Path 61" d="M464.69,214.166v12.927c0,4.64,6.242,8.437,13.871,8.437h21.365c7.629,0,13.871-3.8,13.871-8.437V214.166Z" transform="translate(0 7.121)" fill="#fff"/>
    <path id="Path_62" data-name="Path 62" d="M464.69,195.684v25.854c0,9.281,6.242,16.875,13.871,16.875h21.365c7.629,0,13.871-7.593,13.871-16.875V195.684Z" transform="translate(0 4.238)" fill="none" stroke="#fff" stroke-miterlimit="10" stroke-width="5"/>
    <path id="Rectangle_23" data-name="Rectangle 23" d="M0,0H8.928A5.052,5.052,0,0,1,13.98,5.052V12.51a5.052,5.052,0,0,1-5.052,5.052H0a0,0,0,0,1,0,0V0A0,0,0,0,1,0,0Z" transform="translate(513.798 207.528)" fill="none" stroke="#fff" stroke-miterlimit="10" stroke-width="5"/>
    <path id="Path_63" data-name="Path 63" d="M479.244,168.508s-6.072,4.719,0,9.648,0,9.646,0,9.646" transform="translate(1.849)" fill="none" stroke="#fff" stroke-linecap="round" stroke-miterlimit="10" stroke-width="5"/>
    <path id="Path_64" data-name="Path 64" d="M492.183,168.508s-6.072,4.719,0,9.648,0,9.646,0,9.646" transform="translate(3.867)" fill="none" stroke="#fff" stroke-linecap="round" stroke-miterlimit="10" stroke-width="5"/>
  </g>
</svg>
