<svg xmlns="http://www.w3.org/2000/svg" viewBox="0 0 193.75 62.7"><defs><style>.cls-1{fill:#42129e;}</style></defs><g id="Layer_2" data-name="Layer 2"><g id="Front"><path class="cls-1" d="M155,7.28A69.43,69.43,0,0,1,193.75,19,49,49,0,0,0,130.82,6.38a4.77,4.77,0,0,0-2.22-.55,4.62,4.62,0,0,0-2,.46A49,49,0,0,0,63.8,19a69.83,69.83,0,0,1,60.06-8.44c0,.18,0,.36,0,.54a49.85,49.85,0,0,0-7.67,7.9,70.35,70.35,0,0,1,9-5.12A4.72,4.72,0,0,0,132,13.8,70.94,70.94,0,0,1,141.32,19a48.76,48.76,0,0,0-8-8.17.76.76,0,0,0,0-.15A69.64,69.64,0,0,1,155,7.28Z"/><path class="cls-1" d="M70.52,53.6a53.61,53.61,0,0,1,30,9.1,37.88,37.88,0,0,0-48.67-9.8,3.69,3.69,0,0,0-3.28-.07A37.87,37.87,0,0,0,0,62.7a54,54,0,0,1,46.45-6.53c0,.14,0,.28,0,.41a38.59,38.59,0,0,0-5.93,6.12,54,54,0,0,1,7-4,3.65,3.65,0,0,0,5.23-.09A53.3,53.3,0,0,1,60,62.7a38.28,38.28,0,0,0-6.2-6.33s0-.07,0-.11A54,54,0,0,1,70.52,53.6Z"/><path class="cls-1" d="M164.62,52.29A27.42,27.42,0,0,1,180,56.94a19.38,19.38,0,0,0-24.89-5,1.83,1.83,0,0,0-1.68,0,19.36,19.36,0,0,0-24.82,5,27.64,27.64,0,0,1,23.75-3.34,1.36,1.36,0,0,0,0,.21,19.5,19.5,0,0,0-3,3.13,26,26,0,0,1,3.57-2,1.86,1.86,0,0,0,2.67-.05,27.59,27.59,0,0,1,3.68,2.07,19.38,19.38,0,0,0-3.17-3.23v-.06A27.61,27.61,0,0,1,164.62,52.29Z"/></g></g></svg>