<svg xmlns="http://www.w3.org/2000/svg" xmlns:xlink="http://www.w3.org/1999/xlink" viewBox="0 0 296.2 211.18"><defs><style>.cls-1{fill:none;}.cls-2{opacity:0.5;}.cls-3{clip-path:url(#clip-path);}.cls-4{fill:#42129e;}.cls-5{opacity:0.3;}</style><clipPath id="clip-path" transform="translate(-116.12 -27.05)"><rect class="cls-1" width="431.12" height="133"/></clipPath></defs><g id="Layer_2" data-name="Layer 2"><g id="Front"><g class="cls-2"><g class="cls-3"><circle class="cls-4" cx="214.17" cy="129.16" r="82.02"/><g class="cls-5"><path d="M367.54,83.11a82,82,0,0,1-95.23,131.12A82,82,0,1,0,367.54,83.11Z" transform="translate(-116.12 -27.05)"/></g><circle class="cls-4" cx="131.28" cy="83.97" r="83.97"/><g class="cls-5"><path d="M285.53,36.19A84,84,0,0,1,188,170.41,84,84,0,1,0,285.53,36.19Z" transform="translate(-116.12 -27.05)"/></g><circle class="cls-4" cx="46.05" cy="99.13" r="41.18"/><g class="cls-5"><path d="M180.87,89.48a41.19,41.19,0,0,1-47.81,65.82,41.18,41.18,0,1,0,47.81-65.82Z" transform="translate(-116.12 -27.05)"/></g><rect class="cls-4" y="99.19" width="296" height="6.76" rx="3.38"/></g><rect class="cls-4" x="230.8" y="23.71" width="48.2" height="6.76" rx="3.38"/><rect class="cls-4" x="210.03" y="11.19" width="36.63" height="6.76" rx="3.38"/><circle class="cls-4" cx="52" cy="35.95" r="2"/><circle class="cls-4" cx="23" cy="54.95" r="1"/><circle class="cls-4" cx="39" cy="45.95" r="4"/></g></g></g></svg>