<svg xmlns="http://www.w3.org/2000/svg" xmlns:xlink="http://www.w3.org/1999/xlink" viewBox="0 0 475.29 184.91"><defs><style>.cls-1{fill:none;}.cls-2{opacity:0.5;}.cls-3{clip-path:url(#clip-path);}.cls-4{fill:#42129e;}.cls-5{opacity:0.3;}</style><clipPath id="clip-path" transform="translate(0 -40.52)"><rect class="cls-1" x="33.85" width="431.12" height="133"/></clipPath></defs><g id="Layer_2" data-name="Layer 2"><g id="Front"><g class="cls-2"><g class="cls-3"><circle class="cls-4" cx="349.18" cy="44.57" r="30.08"/><g class="cls-5"><path d="M362.83,58.27a30.09,30.09,0,0,1-34.92,48.09,30.09,30.09,0,1,0,34.92-48.09Z" transform="translate(0 -40.52)"/></g><circle class="cls-4" cx="395.65" cy="85.16" r="50.72"/><g class="cls-5"><path d="M418.68,80.47a50.73,50.73,0,0,1-58.88,81.08,50.72,50.72,0,1,0,58.88-81.08Z" transform="translate(0 -40.52)"/></g><circle class="cls-4" cx="304.21" cy="91.66" r="63.96"/><g class="cls-5"><path d="M333.25,75.17A64,64,0,0,1,259,177.42,64,64,0,1,0,333.25,75.17Z" transform="translate(0 -40.52)"/></g><circle class="cls-4" cx="189.5" cy="83.97" r="83.97"/><g class="cls-5"><path d="M227.63,49.65a84,84,0,0,1-97.49,134.23A84,84,0,1,0,227.63,49.65Z" transform="translate(0 -40.52)"/></g><circle class="cls-4" cx="97.81" cy="120.94" r="63.96"/><g class="cls-5"><path d="M126.85,104.45A64,64,0,0,1,52.59,206.7a64,64,0,1,0,74.26-102.25Z" transform="translate(0 -40.52)"/></g><rect class="cls-4" x="33.85" y="85.72" width="428.87" height="6.76" rx="3.38"/></g><rect class="cls-4" y="63.72" width="36.63" height="6.76" rx="3.38"/><rect class="cls-4" x="468.53" y="85.24" width="6.76" height="6.76" rx="3.38"/><circle class="cls-4" cx="256.97" cy="16.48" r="4"/><circle class="cls-4" cx="265.97" cy="25.48" r="2"/><circle class="cls-4" cx="297.37" cy="21.99" r="1.45"/></g></g></g></svg>