<svg xmlns="http://www.w3.org/2000/svg" xmlns:xlink="http://www.w3.org/1999/xlink" viewBox="0 0 586 211.18"><defs><style>.cls-1{fill:none;}.cls-2{opacity:0.5;}.cls-3{clip-path:url(#clip-path);}.cls-4{fill:#42129e;}.cls-5{opacity:0.3;}</style><clipPath id="clip-path" transform="translate(-1.12 -27.05)"><rect class="cls-1" width="583.12" height="133"/></clipPath></defs><g id="Layer_2" data-name="Layer 2"><g id="Front"><g class="cls-2"><g class="cls-3"><circle class="cls-4" cx="214.17" cy="129.16" r="82.02"/><g class="cls-5"><path d="M252.54,83.11a82,82,0,0,1-95.23,131.12A82,82,0,1,0,252.54,83.11Z" transform="translate(-1.12 -27.05)"/></g><circle class="cls-4" cx="457.62" cy="105.46" r="47.38"/><g class="cls-5"><path d="M480.25,90.28a47.38,47.38,0,0,1-55,75.74,47.38,47.38,0,1,0,55-75.74Z" transform="translate(-1.12 -27.05)"/></g><circle class="cls-4" cx="131.28" cy="83.97" r="83.97"/><g class="cls-5"><path d="M170.53,36.19A84,84,0,0,1,73,170.41,84,84,0,1,0,170.53,36.19Z" transform="translate(-1.12 -27.05)"/></g><circle class="cls-4" cx="395.77" cy="88.31" r="62.53"/><g class="cls-5"><path d="M425.28,59.63a62.54,62.54,0,0,1-72.59,100,62.54,62.54,0,1,0,72.59-100Z" transform="translate(-1.12 -27.05)"/></g><circle class="cls-4" cx="46.05" cy="99.13" r="41.18"/><g class="cls-5"><path d="M65.87,89.48A41.19,41.19,0,0,1,18.06,155.3,41.18,41.18,0,1,0,65.87,89.48Z" transform="translate(-1.12 -27.05)"/></g><circle class="cls-4" cx="341.05" cy="115.13" r="41.18"/><g class="cls-5"><path d="M360.87,105.48a41.19,41.19,0,0,1-47.81,65.82,41.18,41.18,0,1,0,47.81-65.82Z" transform="translate(-1.12 -27.05)"/></g><rect class="cls-4" y="99.19" width="569" height="6.76" rx="3.38"/></g><rect class="cls-4" x="523.8" y="87.71" width="16.2" height="6.76" rx="3.38"/><rect class="cls-4" x="533.03" y="76.19" width="52.97" height="6.76" rx="3.38"/><circle class="cls-4" cx="302.31" cy="53.76" r="2"/><circle class="cls-4" cx="297.22" cy="69.35" r="4"/></g></g></g></svg>