<svg xmlns="http://www.w3.org/2000/svg" xmlns:xlink="http://www.w3.org/1999/xlink" viewBox="0 0 378.76 198.38"><defs><style>.cls-1{fill:none;}.cls-2{opacity:0.5;}.cls-3{clip-path:url(#clip-path);}.cls-4{fill:#42129e;}.cls-5{opacity:0.3;}</style><clipPath id="clip-path" transform="translate(0 -41)"><rect class="cls-1" x="25.64" width="431.12" height="133"/></clipPath></defs><g id="Layer_2" data-name="Layer 2"><g id="Front"><g class="cls-2"><g class="cls-3"><circle class="cls-4" cx="332.87" cy="89.21" r="37.11"/><g class="cls-5"><path d="M349.72,97.13a37.12,37.12,0,0,1-43.08,59.33,37.11,37.11,0,1,0,43.08-59.33Z" transform="translate(0 -41)"/></g><circle class="cls-4" cx="315.37" cy="53.71" r="24.61"/><g class="cls-5"><path d="M316.6,70.12a24.62,24.62,0,0,1-10,47.59,24.61,24.61,0,1,0,10-47.59Z" transform="translate(0 -41)"/></g><circle class="cls-4" cx="246.96" cy="92.3" r="82.02"/><g class="cls-5"><path d="M284.21,60.2A82,82,0,0,1,189,191.31,82,82,0,1,0,284.21,60.2Z" transform="translate(0 -41)"/></g><circle class="cls-4" cx="201.16" cy="100.63" r="55.63"/><g class="cls-5"><path d="M214.69,87.66a55.64,55.64,0,0,1-43.07,101.11A55.63,55.63,0,1,0,214.69,87.66Z" transform="translate(0 -41)"/></g><circle class="cls-4" cx="132.81" cy="118.18" r="80.18"/><g class="cls-5"><path d="M146.75,80.2A80.2,80.2,0,0,1,95.18,230,80.19,80.19,0,1,0,146.75,80.2Z" transform="translate(0 -41)"/></g><rect class="cls-4" x="53.76" y="85.24" width="325" height="6.76" rx="3.38"/></g><rect class="cls-4" x="10.76" y="85" width="35" height="6.76" rx="3.38"/><rect class="cls-4" y="85" width="6.76" height="6.76" rx="3.38"/><circle class="cls-4" cx="249.76" cy="6" r="2"/><circle class="cls-4" cx="239.76" cy="4" r="4"/></g></g></g></svg>