<svg xmlns="http://www.w3.org/2000/svg" xmlns:xlink="http://www.w3.org/1999/xlink" viewBox="0 0 245 180.28"><defs><style>.cls-1{fill:none;}.cls-2{opacity:0.5;}.cls-3{clip-path:url(#clip-path);}.cls-4{fill:#42129e;}.cls-5{opacity:0.3;}</style><clipPath id="clip-path" transform="translate(-116.12 -57)"><rect class="cls-1" width="431.12" height="133"/></clipPath></defs><g id="Layer_2" data-name="Layer 2"><g id="Front"><g class="cls-2"><g class="cls-3"><circle class="cls-4" cx="85.39" cy="36.63" r="32.63"/><g class="cls-5"><path d="M216.33,64.55a32.63,32.63,0,0,1-37.88,52.16,32.63,32.63,0,1,0,37.88-52.16Z" transform="translate(-116.12 -57)"/></g><circle class="cls-4" cx="152.4" cy="98.25" r="82.02"/><g class="cls-5"><path d="M305.76,82.15a82,82,0,0,1-95.22,131.12A82,82,0,1,0,305.76,82.15Z" transform="translate(-116.12 -57)"/></g><circle class="cls-4" cx="46.05" cy="69.18" r="41.18"/><g class="cls-5"><path d="M180.87,89.48a41.19,41.19,0,0,1-47.81,65.82,41.18,41.18,0,1,0,47.81-65.82Z" transform="translate(-116.12 -57)"/></g><rect class="cls-4" y="69.24" width="237" height="6.76" rx="3.38"/></g><rect class="cls-4" x="141" width="35" height="6.76" rx="3.38"/><rect class="cls-4" x="121" width="16" height="6.76" rx="3.38"/><circle class="cls-4" cx="48" cy="20" r="2"/><circle class="cls-4" cx="243" cy="66" r="2"/><circle class="cls-4" cx="235" cy="59" r="4"/></g></g></g></svg>