<svg xmlns="http://www.w3.org/2000/svg" xmlns:xlink="http://www.w3.org/1999/xlink" viewBox="0 0 314 314"><defs><style>.cls-1{fill:none;}.cls-2{fill:url(#linear-gradient);}.cls-3{fill:url(#linear-gradient-2);}.cls-4{fill:url(#linear-gradient-3);}.cls-5{fill:url(#linear-gradient-4);}.cls-6{fill:url(#radial-gradient);}</style><linearGradient id="linear-gradient" x1="489.35" y1="238.67" x2="477.19" y2="367.4" gradientTransform="translate(-405.03 136.96) rotate(-30.62)" gradientUnits="userSpaceOnUse"><stop offset="0" stop-color="#00e37b"/><stop offset="0.37" stop-color="#0fcea2"/><stop offset="1" stop-color="#29abe2"/></linearGradient><linearGradient id="linear-gradient-2" x1="488.03" y1="238.55" x2="475.87" y2="367.28" xlink:href="#linear-gradient"/><linearGradient id="linear-gradient-3" x1="173.22" y1="265.46" x2="736.26" y2="341.57" gradientTransform="translate(-405.03 136.96) rotate(-30.62)" gradientUnits="userSpaceOnUse"><stop offset="0" stop-color="#eca99d"/><stop offset="0.6" stop-color="#746dc8"/><stop offset="1" stop-color="#2948e2"/></linearGradient><linearGradient id="linear-gradient-4" x1="182.23" y1="-75.02" x2="85.92" y2="944.7" gradientTransform="matrix(1, 0, 0, 1, 0, 0)" xlink:href="#linear-gradient"/><radialGradient id="radial-gradient" cx="63.56" cy="178.56" r="283.43" gradientUnits="userSpaceOnUse"><stop offset="0" stop-color="#23005a" stop-opacity="0"/><stop offset="0.11" stop-color="#23005a" stop-opacity="0.18"/><stop offset="0.35" stop-color="#23005a" stop-opacity="0.54"/><stop offset="0.59" stop-color="#23005a" stop-opacity="0.79"/><stop offset="0.81" stop-color="#23005a" stop-opacity="0.95"/><stop offset="1" stop-color="#23005a"/></radialGradient></defs><g id="Layer_2" data-name="Layer 2"><g id="Middle"><path class="cls-1" d="M248,135.3c20.24-20.44,29.92-38.62,23.84-48.9-6.35-10.73-28.51-10.55-58-1.56A87.89,87.89,0,0,1,248,135.3Z"/><path class="cls-1" d="M75.59,164.67c-25.78,23.6-39,45.24-32.1,56.83,6.59,11.15,30.23,10.52,61.45.48a87.8,87.8,0,0,1-29.35-57.31Z"/><path class="cls-2" d="M118.65,231.86a87.66,87.66,0,0,0,131.79-78.32c-17.32,15.24-38.84,30.84-63.17,45.24A425.1,425.1,0,0,1,118.65,231.86Z"/><path class="cls-3" d="M177.89,188.16C152,203.47,126.65,215,104.94,222a87.53,87.53,0,0,0,13.71,9.88,425.1,425.1,0,0,0,68.62-33.08c24.33-14.4,45.85-30,63.17-45.24A87.38,87.38,0,0,0,248,135.3C231,152.43,206.63,171.16,177.89,188.16Z"/><path class="cls-4" d="M208.84,81.56c1.69,1,3.34,2.13,4.95,3.28,29.5-9,51.66-9.17,58,1.56,6.08,10.28-3.6,28.46-23.84,48.9-17,17.13-41.33,35.86-70.07,52.86C152,203.47,126.65,215,104.94,222c-31.22,10-54.86,10.67-61.45-.48-6.86-11.59,6.32-33.23,32.1-56.83-.14-1.47-.25-2.93-.32-4.4C41,190.36,23,219.08,32,234.4s43.35,13.35,86.64-2.54a425.1,425.1,0,0,0,68.62-33.08c24.33-14.4,45.85-30,63.17-45.24,34-29.93,51.8-58.46,42.77-73.7S251.06,66.43,208.84,81.56Z"/><path class="cls-5" d="M238.25,111.53a87.33,87.33,0,0,0-24.46-26.69c-1.61-1.15-3.26-2.25-4.95-3.28A87.66,87.66,0,0,0,75.27,160.27c.07,1.47.18,2.93.32,4.4A87.8,87.8,0,0,0,104.94,222c21.71-7,47.09-18.51,72.95-33.82,28.74-17,53.12-35.73,70.07-52.86A87.46,87.46,0,0,0,238.25,111.53Z"/><circle class="cls-6" cx="157" cy="157" r="157"/></g></g></svg>