<svg xmlns="http://www.w3.org/2000/svg" xmlns:xlink="http://www.w3.org/1999/xlink" viewBox="0 0 265.16 264"><defs><style>.cls-1{fill:url(#linear-gradient);}.cls-2{fill:url(#linear-gradient-2);}.cls-3{fill:url(#linear-gradient-3);}.cls-4{fill:url(#linear-gradient-4);}.cls-5{fill:url(#linear-gradient-5);}.cls-6{fill:#e85b5b;}.cls-7{fill:#ffe1e1;}.cls-8{fill:#efbbbb;}.cls-9{fill:#f78d8d;}.cls-10{fill:url(#radial-gradient);}</style><linearGradient id="linear-gradient" x1="189.25" y1="35.2" x2="265.14" y2="35.2" gradientUnits="userSpaceOnUse"><stop offset="0" stop-color="#23005a"/><stop offset="0.39" stop-color="#25015a"/><stop offset="0.53" stop-color="#2c0458"/><stop offset="0.63" stop-color="#370955"/><stop offset="0.71" stop-color="#481050"/><stop offset="0.78" stop-color="#5e1a4a"/><stop offset="0.84" stop-color="#7a2643"/><stop offset="0.9" stop-color="#9a343b"/><stop offset="0.95" stop-color="#c04431"/><stop offset="0.99" stop-color="#e95626"/><stop offset="1" stop-color="#f15a24"/></linearGradient><linearGradient id="linear-gradient-2" x1="187.71" y1="27.5" x2="265.16" y2="27.5" gradientUnits="userSpaceOnUse"><stop offset="0" stop-color="#23005a"/><stop offset="0.12" stop-color="#280259"/><stop offset="0.26" stop-color="#360855"/><stop offset="0.41" stop-color="#4c124f"/><stop offset="0.56" stop-color="#6c2047"/><stop offset="0.72" stop-color="#96323c"/><stop offset="0.88" stop-color="#c7482f"/><stop offset="1" stop-color="#f15a24"/></linearGradient><linearGradient id="linear-gradient-3" x1="242.18" y1="18.21" x2="242.2" y2="18.21" gradientUnits="userSpaceOnUse"><stop offset="0" stop-color="#23005a"/><stop offset="0.19" stop-color="#53154d"/><stop offset="0.47" stop-color="#96323c"/><stop offset="0.72" stop-color="#c7482f"/><stop offset="0.9" stop-color="#e65527"/><stop offset="1" stop-color="#f15a24"/></linearGradient><linearGradient id="linear-gradient-4" x1="208.15" y1="27.94" x2="208.17" y2="27.94" xlink:href="#linear-gradient-3"/><linearGradient id="linear-gradient-5" x1="207.49" y1="18.54" x2="242.31" y2="18.54" xlink:href="#linear-gradient-3"/><radialGradient id="radial-gradient" cx="235.78" cy="31.83" r="274.18" gradientUnits="userSpaceOnUse"><stop offset="0" stop-color="#23005a" stop-opacity="0"/><stop offset="0.11" stop-color="#23005a" stop-opacity="0.18"/><stop offset="0.35" stop-color="#23005a" stop-opacity="0.54"/><stop offset="0.59" stop-color="#23005a" stop-opacity="0.79"/><stop offset="0.81" stop-color="#23005a" stop-opacity="0.95"/><stop offset="1" stop-color="#23005a"/></radialGradient></defs><g id="Layer_2" data-name="Layer 2"><g id="Middle"><path class="cls-1" d="M265.14,19l-5.65,1.63c-6.64-3.74-20.1-3.87-34.59.27-14.67,4.19-26.12,11.54-29.64,18.29l-6,1.73,6.31,6.43c4.72,5.93,20.39,7,37.5,2.1s29.88-14.1,30.72-21.63Z"/><path class="cls-2" d="M231,43.36c21.21-6.06,36.38-18.06,33.94-26.81l-.05-.14c-2.61-8.68-21.79-10.82-43-4.77s-36.32,18-33.95,26.75l0,.14C190.55,47.25,209.76,49.42,231,43.36Z"/><path class="cls-3" d="M242.19,18.22s0,0,0,0l0,.06Z"/><path class="cls-4" d="M208.16,28v0l0-.06S208.16,27.93,208.16,28Z"/><path class="cls-5" d="M242.18,18.18a17.7,17.7,0,0,0-34,9.73l0,.06c1.13,3.86,9.63,4.82,19,2.13s16.1-8,15-11.86Z"/><path class="cls-6" d="M35,213.5a14.31,14.31,0,0,0-5.57-4,128.54,128.54,0,0,0,119,50c-7.38-1.91-14.75-4.19-22.2-6.4C94.12,243.91,59.11,240.47,35,213.5Z"/><path class="cls-7" d="M230.2,215c-23,4.64-47.61,2.86-71.23-.89-25.25-3.44-44.19-16.07-65.42-31S47.06,179.63,23,173.9a29.68,29.68,0,0,1-15.18-8.71,128.24,128.24,0,0,0,21.66,44.33,14.31,14.31,0,0,1,5.57,4c24.1,27,59.11,30.41,91.25,39.6,7.45,2.21,14.82,4.49,22.2,6.4A128.4,128.4,0,0,0,230.2,215Z"/><path class="cls-8" d="M260.35,124.85c-9.11,3.75-18.23,7.18-27.34,10.59-16.64,6.89-33.86,11.48-52.8,16.07-23,4.59-44.77,2.3-67.72-1.72-35.59-6.89-66-17.22-101.59-23.53-2.82-.47-4.88-2.1-7.11-3.63q-.34,4.65-.35,9.37a128.8,128.8,0,0,0,4.34,33.19A29.68,29.68,0,0,0,23,173.9c24.1,5.73,49.35-5.74,70.59,9.18s40.17,27.55,65.42,31c23.62,3.75,48.21,5.53,71.23.89a128.06,128.06,0,0,0,30.36-83C260.56,129.6,260.48,127.22,260.35,124.85Z"/><path class="cls-7" d="M112.49,149.79c23,4,44.76,6.31,67.72,1.72,18.94-4.59,36.16-9.18,52.8-16.07,9.11-3.41,18.23-6.84,27.34-10.59a128.08,128.08,0,0,0-7.44-36.61C214.55,115.33,161,101.41,116.5,90.68,111.34,89,105.6,87.23,101,89.53,89,95.27,75.76,95.27,62.56,94.12,40.84,93.09,32.63,72,30.8,52.74a127.85,127.85,0,0,0-27,69.89c2.23,1.53,4.29,3.16,7.11,3.63C46.49,132.57,76.9,142.9,112.49,149.79Z"/><path class="cls-8" d="M159.55,59.11c-24.68-6.31-50.51,8-76.33.58C68.23,55.41,62.73,41.15,55.08,29A129.06,129.06,0,0,0,30.8,52.74c1.83,19.28,10,40.35,31.76,41.38C75.76,95.27,89,95.27,101,89.53c4.59-2.3,10.33-.57,15.49,1.15,44.48,10.73,98.05,24.65,136.41-2.44A128.45,128.45,0,0,0,230.3,49.16C209.58,60.87,185.24,65.44,159.55,59.11Z"/><path class="cls-6" d="M83.22,59.69c25.82,7.46,51.65-6.89,76.33-.58,25.69,6.33,50,1.76,70.75-10a129.11,129.11,0,0,0-40.7-32.11c-21.54,11.36-46.46,13.62-71.37,8.2-10.12-1.74-17.47-8.36-22.85-16.51A128.41,128.41,0,0,0,55.08,29C62.73,41.15,68.23,55.41,83.22,59.69Z"/><path class="cls-9" d="M118.23,25.25c24.91,5.42,49.83,3.16,71.37-8.2A128.87,128.87,0,0,0,95.38,8.74C100.76,16.89,108.11,23.51,118.23,25.25Z"/><circle class="cls-10" cx="132" cy="132" r="132"/></g></g></svg>