<svg xmlns="http://www.w3.org/2000/svg" width="65.577" height="73.229" viewBox="0 0 65.577 73.229">
  <g id="Group_134" data-name="Group 134" transform="translate(-460.976 -281.11)">
    <path id="Rectangle_28" data-name="Rectangle 28" d="M16.387,0h27.8A16.387,16.387,0,0,1,60.577,16.387v4.159a3.543,3.543,0,0,1-3.543,3.543H3.543A3.543,3.543,0,0,1,0,20.546V16.387A16.387,16.387,0,0,1,16.387,0Z" transform="translate(463.476 283.61)" fill="none" stroke="#fff" stroke-linecap="round" stroke-linejoin="round" stroke-width="5"/>
    <path id="Rectangle_29" data-name="Rectangle 29" d="M0,0H60.577a0,0,0,0,1,0,0V1.723a8.259,8.259,0,0,1-8.259,8.259H8.259A8.259,8.259,0,0,1,0,1.723V0A0,0,0,0,1,0,0Z" transform="translate(463.476 341.857)" fill="none" stroke="#fff" stroke-linecap="round" stroke-linejoin="round" stroke-width="5"/>
    <line id="Line_8" data-name="Line 8" x2="60.577" transform="translate(463.476 317.308)" fill="none" stroke="#fff" stroke-linecap="round" stroke-linejoin="round" stroke-width="5"/>
    <g id="Group_133" data-name="Group 133" transform="translate(464.837 326.262)">
      <path id="Path_71" data-name="Path 71" d="M470.388,318.9a5.786,5.786,0,0,0-5.786,5.786h11.572A5.786,5.786,0,0,0,470.388,318.9Z" transform="translate(-464.602 -318.899)" fill="none" stroke="#fff" stroke-linecap="round" stroke-linejoin="round" stroke-width="5"/>
      <path id="Path_72" data-name="Path 72" d="M479.961,318.9a5.786,5.786,0,0,0-5.785,5.786h11.571A5.786,5.786,0,0,0,479.961,318.9Z" transform="translate(-462.604 -318.899)" fill="none" stroke="#fff" stroke-linecap="round" stroke-linejoin="round" stroke-width="5"/>
      <path id="Path_73" data-name="Path 73" d="M489.535,318.9a5.786,5.786,0,0,0-5.786,5.786h11.57A5.786,5.786,0,0,0,489.535,318.9Z" transform="translate(-460.607 -318.899)" fill="none" stroke="#fff" stroke-linecap="round" stroke-linejoin="round" stroke-width="5"/>
      <path id="Path_74" data-name="Path 74" d="M499.108,318.9a5.786,5.786,0,0,0-5.786,5.786h11.572A5.786,5.786,0,0,0,499.108,318.9Z" transform="translate(-458.609 -318.899)" fill="none" stroke="#fff" stroke-linecap="round" stroke-linejoin="round" stroke-width="5"/>
      <path id="Path_75" data-name="Path 75" d="M508.681,318.9a5.786,5.786,0,0,0-5.785,5.786h11.57A5.786,5.786,0,0,0,508.681,318.9Z" transform="translate(-456.612 -318.899)" fill="none" stroke="#fff" stroke-linecap="round" stroke-linejoin="round" stroke-width="5"/>
    </g>
  </g>
</svg>
